# xmcd CD database file
#
# Track frame offsets:
#	150
#	43162
#	83510
#	113657
#	150442
#	190565
#	224187
#	273550
#	313192
#
# Disc length: 4517 seconds
#
# Revision: 0
# Processed by: cddbd v1.5.1PL0 Copyright (c) Steve Scherf et al.
# Submitted via: CDex 1.51
#
DISCID=7811a309
DTITLE=Various Artist - Black Saint/Soul Note Critics' Pick Sampler Volume 3
DYEAR=1998
DGENRE=Jazz
TTITLE0=How Does Power Work? - Tom Varner
TTITLE1=B.K. - Air
TTITLE2=Metamusicians' Stomp - Andrew Cyrille and Maono
TTITLE3=Black Paladins - Joseph Jarman
TTITLE4=Taht - Cecil Taylor Segments II
TTITLE5=Short Life of Barbara Monk - Ran Blake
TTITLE6=Voodoo - Sonny Clark Memorial Quartet
TTITLE7=Energy Cycles - Milford Graves, Andrew Cyrille, Kenny Clarke, and Famoudou Don Moye
TTITLE8=Sunset on the Night on the River Nile - Sun Ra Arkestra
EXTD=YEAR: 1998
EXTT0=
EXTT1=
EXTT2=
EXTT3=
EXTT4=
EXTT5=
EXTT6=
EXTT7=
EXTT8=
PLAYORDER=
